<?xml version="1.0" encoding="utf-8"?>
<!-- Generator: Adobe Illustrator 21.1.0, SVG Export Plug-In . SVG Version: 6.00 Build 0)  -->
<svg version="1.1" id="分離模式" xmlns="http://www.w3.org/2000/svg" xmlns:xlink="http://www.w3.org/1999/xlink" x="0px"
	 y="0px" viewBox="0 0 25 25" style="enable-background:new 0 0 25 25;" xml:space="preserve">
<style type="text/css">
	.st0{fill:url(#SVGID_1_);}
	.st1{fill:url(#SVGID_2_);}
	.st2{filter:url(#Adobe_OpacityMaskFilter);}
	.st3{fill:url(#SVGID_4_);}
	.st4{mask:url(#SVGID_3_);}
	.st5{fill:url(#SVGID_5_);}
	.st6{fill:url(#SVGID_6_);}
</style>
<g>
	<linearGradient id="SVGID_1_" gradientUnits="userSpaceOnUse" x1="7.7987" y1="18.0693" x2="7.7987" y2="5.4222">
		<stop  offset="0" style="stop-color:#3A3635"/>
		<stop  offset="0.1467" style="stop-color:#403C3B"/>
		<stop  offset="0.4067" style="stop-color:#555353"/>
		<stop  offset="0.4612" style="stop-color:#5A5858"/>
		<stop  offset="0.5217" style="stop-color:#676565"/>
		<stop  offset="0.5844" style="stop-color:#7B7A7B"/>
		<stop  offset="0.7004" style="stop-color:#717070"/>
		<stop  offset="0.8311" style="stop-color:#6A6969"/>
		<stop  offset="0.98" style="stop-color:#4D4A49"/>
	</linearGradient>
	<path class="st0" d="M3.9,14.3h0.8c0.1,0.5,0.2,0.9,0.4,1.1c0.4,0.6,1,0.8,1.9,0.8c0.7,0,1.3-0.2,1.7-0.6c0.4-0.4,0.7-0.9,0.7-1.6
		c0-1-0.4-1.7-1.3-1.9c-0.4-0.1-0.9-0.2-1.7-0.2H6.1v-0.7h0.4c0.8,0,1.3-0.1,1.6-0.3c0.6-0.3,0.9-0.9,0.9-1.7c0-0.6-0.2-1.1-0.5-1.4
		C8.1,7.5,7.6,7.3,7.1,7.3c-0.7,0-1.2,0.3-1.6,0.8C5.4,8.3,5.2,8.7,5.1,9.1H4.3c0.2-2.2,1.4-3.3,3.5-3.3c1,0,1.9,0.3,2.5,0.8
		c0.6,0.5,0.8,1.2,0.8,2.1c0,1.3-0.7,2.2-2.1,2.7c0.7,0.2,1.2,0.4,1.5,0.6c0.7,0.5,1,1.2,1,2.2c0,1-0.4,1.9-1.2,2.6
		c-0.8,0.6-1.7,0.9-2.8,0.9c-0.7,0-1.4-0.1-1.9-0.4c-0.6-0.3-1-0.7-1.3-1.3C4.1,15.5,4,15,3.9,14.3z"/>
	<linearGradient id="SVGID_2_" gradientUnits="userSpaceOnUse" x1="17.0936" y1="18.0693" x2="17.0936" y2="5.4222">
		<stop  offset="0" style="stop-color:#3A3635"/>
		<stop  offset="0.1467" style="stop-color:#403C3B"/>
		<stop  offset="0.4067" style="stop-color:#555353"/>
		<stop  offset="0.4612" style="stop-color:#5A5858"/>
		<stop  offset="0.5217" style="stop-color:#676565"/>
		<stop  offset="0.5844" style="stop-color:#7B7A7B"/>
		<stop  offset="0.7004" style="stop-color:#717070"/>
		<stop  offset="0.8311" style="stop-color:#6A6969"/>
		<stop  offset="0.98" style="stop-color:#4D4A49"/>
	</linearGradient>
	<path class="st1" d="M18.6,5.5h1c-0.7,0.6-1.3,1.3-2,2.1C17,8.5,16.6,9.3,16.2,10c0.5-0.2,1-0.4,1.5-0.4c0.9,0,1.6,0.3,2.2,1
		c0.7,0.8,1.1,1.8,1.1,3c0,1.2-0.4,2.1-1.1,2.9c-0.8,0.8-1.7,1.2-2.9,1.2c-1.2,0-2.2-0.5-3-1.4c-0.7-0.8-1-1.8-1-2.9
		c0-1.8,1-3.7,2.9-5.6C16.8,7,17.7,6.2,18.6,5.5z M17.1,10.4c-0.3,0-0.6,0.1-0.8,0.3c-0.2,0.2-0.4,0.4-0.5,0.7
		c-0.2,0.6-0.3,1.4-0.3,2.4c0,1,0.1,1.8,0.3,2.4c0.2,0.6,0.7,1,1.3,1c0.7,0,1.1-0.3,1.4-1c0.2-0.6,0.3-1.3,0.3-2.3
		c0-1.1-0.1-2-0.4-2.6C18.2,10.7,17.7,10.4,17.1,10.4z"/>
</g>
<defs>
	<filter id="Adobe_OpacityMaskFilter" filterUnits="userSpaceOnUse" x="3.9" y="18.6" width="17.1" height="12.2">
		<feColorMatrix  type="matrix" values="1 0 0 0 0  0 1 0 0 0  0 0 1 0 0  0 0 0 1 0"/>
	</filter>
</defs>
<mask maskUnits="userSpaceOnUse" x="3.9" y="18.6" width="17.1" height="12.2" id="SVGID_3_">
	<g class="st2">
		<linearGradient id="SVGID_4_" gradientUnits="userSpaceOnUse" x1="12.2671" y1="11.9501" x2="12.2671" y2="23.5291">
			<stop  offset="0" style="stop-color:#FFFFFF"/>
			<stop  offset="1" style="stop-color:#000000"/>
		</linearGradient>
		<rect x="0.5" y="17" class="st3" width="23.6" height="13.4"/>
	</g>
</mask>
<g class="st4">
	
		<linearGradient id="SVGID_5_" gradientUnits="userSpaceOnUse" x1="7.7987" y1="5.6005" x2="7.7987" y2="-7.0465" gradientTransform="matrix(1 0 0 -1 0 23.875)">
		<stop  offset="0" style="stop-color:#3A3635"/>
		<stop  offset="0.1467" style="stop-color:#403C3B"/>
		<stop  offset="0.4067" style="stop-color:#555353"/>
		<stop  offset="0.4612" style="stop-color:#5A5858"/>
		<stop  offset="0.5217" style="stop-color:#676565"/>
		<stop  offset="0.5844" style="stop-color:#7B7A7B"/>
		<stop  offset="0.7004" style="stop-color:#717070"/>
		<stop  offset="0.8311" style="stop-color:#6A6969"/>
		<stop  offset="0.98" style="stop-color:#4D4A49"/>
	</linearGradient>
	<path class="st5" d="M4.4,20.3c0.3-0.5,0.7-1,1.3-1.3c0.6-0.3,1.2-0.4,1.9-0.4c1.1,0,2.1,0.3,2.8,0.9c0.8,0.7,1.2,1.5,1.2,2.6
		c0,1-0.3,1.7-1,2.2c-0.4,0.3-0.9,0.5-1.5,0.6c1.4,0.5,2.1,1.4,2.1,2.7c0,0.8-0.3,1.5-0.8,2.1c-0.6,0.6-1.4,0.8-2.5,0.8
		c-2.1,0-3.3-1.1-3.5-3.3h0.8c0.1,0.5,0.3,0.8,0.5,1.1C5.9,28.8,6.5,29,7.1,29c0.5,0,0.9-0.2,1.3-0.5c0.3-0.4,0.5-0.8,0.5-1.4
		c0-0.8-0.3-1.3-0.9-1.7c-0.3-0.2-0.9-0.3-1.6-0.3H6.1v-0.7h0.4c0.7,0,1.3-0.1,1.7-0.2C9,24,9.4,23.3,9.4,22.3
		c0-0.7-0.2-1.2-0.7-1.6c-0.4-0.4-1-0.6-1.7-0.6c-0.9,0-1.5,0.3-1.9,0.8c-0.2,0.3-0.3,0.7-0.4,1.1H3.9C4,21.4,4.1,20.8,4.4,20.3z"/>
	
		<linearGradient id="SVGID_6_" gradientUnits="userSpaceOnUse" x1="17.0936" y1="5.6005" x2="17.0936" y2="-7.0465" gradientTransform="matrix(1 0 0 -1 0 23.875)">
		<stop  offset="0" style="stop-color:#3A3635"/>
		<stop  offset="0.1467" style="stop-color:#403C3B"/>
		<stop  offset="0.4067" style="stop-color:#555353"/>
		<stop  offset="0.4612" style="stop-color:#5A5858"/>
		<stop  offset="0.5217" style="stop-color:#676565"/>
		<stop  offset="0.5844" style="stop-color:#7B7A7B"/>
		<stop  offset="0.7004" style="stop-color:#717070"/>
		<stop  offset="0.8311" style="stop-color:#6A6969"/>
		<stop  offset="0.98" style="stop-color:#4D4A49"/>
	</linearGradient>
	<path class="st6" d="M16,28.6c-1.9-1.9-2.9-3.8-2.9-5.6c0-1.1,0.3-2.1,1-2.9c0.8-0.9,1.8-1.4,3-1.4c1.1,0,2.1,0.4,2.9,1.2
		c0.8,0.8,1.1,1.8,1.1,2.9c0,1.2-0.4,2.2-1.1,3c-0.6,0.6-1.3,1-2.2,1c-0.5,0-1-0.1-1.5-0.4c0.3,0.7,0.8,1.4,1.5,2.3
		c0.6,0.8,1.3,1.5,2,2.1h-1C17.7,30.1,16.8,29.4,16,28.6z M18.4,25.1c0.2-0.6,0.4-1.5,0.4-2.6c0-0.9-0.1-1.7-0.3-2.3
		c-0.2-0.7-0.7-1-1.4-1c-0.7,0-1.1,0.3-1.3,1c-0.2,0.6-0.3,1.4-0.3,2.4c0,1,0.1,1.8,0.3,2.4c0.1,0.3,0.3,0.5,0.5,0.7
		c0.2,0.2,0.5,0.3,0.8,0.3C17.7,25.9,18.2,25.6,18.4,25.1z"/>
</g>
</svg>
