<?xml version="1.0" encoding="utf-8"?>
<!-- Generator: Adobe Illustrator 21.1.0, SVG Export Plug-In . SVG Version: 6.00 Build 0)  -->
<svg version="1.1" id="分離模式" xmlns="http://www.w3.org/2000/svg" xmlns:xlink="http://www.w3.org/1999/xlink" x="0px"
	 y="0px" viewBox="0 0 25 25" style="enable-background:new 0 0 25 25;" xml:space="preserve">
<style type="text/css">
	.st0{fill:url(#SVGID_1_);}
	.st1{fill:url(#SVGID_2_);}
	.st2{fill:url(#SVGID_3_);}
	.st3{fill:url(#SVGID_4_);}
	.st4{fill:url(#SVGID_5_);}
	.st5{fill:#A3A3A3;}
	.st6{fill:url(#SVGID_6_);}
	.st7{fill:#3E3A39;}
	.st8{fill:none;}
	.st9{fill:#FFFFFF;}
	.st10{clip-path:url(#SVGID_8_);fill:#FFFFFF;}
	.st11{filter:url(#Adobe_OpacityMaskFilter);}
	.st12{fill:url(#SVGID_10_);}
	.st13{mask:url(#SVGID_9_);}
	.st14{fill:url(#SVGID_11_);}
	.st15{fill:url(#SVGID_12_);}
	.st16{fill:url(#SVGID_13_);}
	.st17{fill:url(#SVGID_14_);}
	.st18{fill:url(#SVGID_15_);}
	.st19{fill:url(#SVGID_16_);}
	.st20{clip-path:url(#SVGID_18_);fill:#FFFFFF;}
</style>
<g>
	<g>
		<linearGradient id="SVGID_1_" gradientUnits="userSpaceOnUse" x1="12.5" y1="10.9258" x2="12.5" y2="5.2529">
			<stop  offset="2.000000e-02" style="stop-color:#4D4A49"/>
			<stop  offset="0.5911" style="stop-color:#9FA0A0"/>
			<stop  offset="0.7867" style="stop-color:#898989"/>
			<stop  offset="0.8933" style="stop-color:#727171"/>
		</linearGradient>
		<path class="st0" d="M7,8.4l1-2.6l8.2-0.2l1.1,0.6L18,8.4l-0.3,0.7c0,0-5.4,0.7-5.5,0.7C12.1,9.9,7,8.4,7,8.4z"/>
		<linearGradient id="SVGID_2_" gradientUnits="userSpaceOnUse" x1="18.1648" y1="15.1075" x2="20.9028" y2="15.1075">
			<stop  offset="2.000000e-02" style="stop-color:#4D4A49"/>
			<stop  offset="0.5911" style="stop-color:#9FA0A0"/>
			<stop  offset="0.7867" style="stop-color:#898989"/>
			<stop  offset="0.8933" style="stop-color:#727171"/>
		</linearGradient>
		<path class="st1" d="M18.2,14.3l2.3-0.5l0.4,1.1l-0.2,1l-2.1,0.5c0,0-0.4-0.5-0.4-0.6C18.2,15.7,18.2,14.2,18.2,14.3"/>
		<linearGradient id="SVGID_3_" gradientUnits="userSpaceOnUse" x1="4.1878" y1="15.2799" x2="7.2405" y2="15.2799">
			<stop  offset="2.000000e-02" style="stop-color:#4D4A49"/>
			<stop  offset="0.5911" style="stop-color:#9FA0A0"/>
			<stop  offset="0.7867" style="stop-color:#898989"/>
			<stop  offset="0.8933" style="stop-color:#727171"/>
		</linearGradient>
		<path class="st2" d="M4.2,14.3c0,0,0.2,1.7,0.3,1.7c0.1,0,1.8,0.2,1.8,0.2L7.2,16l-0.1-1.5L4.2,14.3z"/>
		<linearGradient id="SVGID_4_" gradientUnits="userSpaceOnUse" x1="4.1878" y1="11.7644" x2="8.5727" y2="11.7644">
			<stop  offset="2.000000e-02" style="stop-color:#4D4A49"/>
			<stop  offset="0.5911" style="stop-color:#9FA0A0"/>
			<stop  offset="0.7867" style="stop-color:#898989"/>
			<stop  offset="0.8933" style="stop-color:#727171"/>
		</linearGradient>
		<path class="st3" d="M4.9,10.3l-0.7,1.9c0,0,1.5,0.9,1.6,1c0.1,0.1,1.8,0.3,1.8,0.3l0.7-0.6l0.3-1.5l-1.7-0.8l-1.8-0.5L4.9,10.3z"
			/>
		<linearGradient id="SVGID_5_" gradientUnits="userSpaceOnUse" x1="16.5179" y1="11.7644" x2="20.9028" y2="11.7644">
			<stop  offset="2.000000e-02" style="stop-color:#4D4A49"/>
			<stop  offset="0.5911" style="stop-color:#9FA0A0"/>
			<stop  offset="0.7867" style="stop-color:#898989"/>
			<stop  offset="0.8933" style="stop-color:#727171"/>
		</linearGradient>
		<path class="st4" d="M20.2,10.3l0.7,1.9c0,0-1.5,0.9-1.6,1c-0.1,0.1-1.8,0.3-1.8,0.3l-0.7-0.6l-0.3-1.5l1.7-0.8l1.8-0.5L20.2,10.3
			z"/>
		<g>
			<g>
				<path class="st5" d="M5.1,12c-0.2-0.3-0.2-0.7-0.2-0.7s-0.3,0.6,0,0.9c0.2,0.3,1.4,0.6,1.4,0.6S5.3,12.2,5.1,12z"/>
				<path class="st5" d="M7.8,12.7c0,0,0.3-0.6,0.2-0.7s-1-0.6-1-0.6s0.6,0.5,0.8,0.6C7.9,12.2,7.8,12.7,7.8,12.7z"/>
				<path class="st5" d="M4.7,15c0,0,0,0.3,0.1,0.5c0.2,0.2,1,0.3,1,0.3S5.2,15.5,5,15.4C4.8,15.3,4.7,15,4.7,15z"/>
				<path class="st5" d="M19.9,12c-0.2,0.3-1.2,0.8-1.2,0.8s1.2-0.3,1.4-0.6c0.2-0.3,0-0.9,0-0.9S20.1,11.7,19.9,12z"/>
				<path class="st5" d="M17.2,12.7c0,0-0.2-0.5,0-0.7c0.2-0.2,0.8-0.6,0.8-0.6s-0.9,0.4-1,0.6C16.9,12.1,17.2,12.7,17.2,12.7z"/>
				<path class="st5" d="M20,15.4c-0.2,0.1-0.9,0.4-0.9,0.4s0.9-0.1,1-0.3c0.2-0.2,0.1-0.5,0.1-0.5S20.2,15.3,20,15.4z"/>
			</g>
		</g>
		<linearGradient id="SVGID_6_" gradientUnits="userSpaceOnUse" x1="12.5" y1="18.5634" x2="12.5" y2="4.7684">
			<stop  offset="0" style="stop-color:#3A3635"/>
			<stop  offset="0.1467" style="stop-color:#403C3B"/>
			<stop  offset="0.4067" style="stop-color:#555353"/>
			<stop  offset="0.4612" style="stop-color:#5A5858"/>
			<stop  offset="0.5217" style="stop-color:#676565"/>
			<stop  offset="0.5844" style="stop-color:#7B7A7B"/>
			<stop  offset="0.7004" style="stop-color:#717070"/>
			<stop  offset="0.8311" style="stop-color:#6A6969"/>
			<stop  offset="0.98" style="stop-color:#4D4A49"/>
		</linearGradient>
		<path class="st6" d="M20.5,9.7C20.4,9.5,19.5,9,19,8.6c0,0,0.1-0.1,0.1-0.1c0.1-0.1,1.7,0.2,1.8,0c0.2-0.2,0-0.8-0.1-1
			c-0.2-0.2-1.7-0.2-1.8-0.1c-0.1,0.1-0.1,0.9-0.2,0.8c0,0-0.1,0-0.2,0c-0.2-0.5-1-2.2-1.2-2.5c-0.3-0.3-1.9-0.5-4.9-0.5
			c-3,0-4.6,0.2-4.9,0.5C7.3,6,6.6,7.8,6.4,8.3c-0.1,0-0.1-0.1-0.2,0C6.1,8.2,6.1,7.5,6,7.4c-0.1-0.1-1.6,0-1.8,0.1
			c-0.2,0.2-0.3,0.8-0.1,1c0.2,0.2,1.7-0.1,1.8,0C6,8.5,6,8.6,6,8.6C5.5,9,4.6,9.5,4.5,9.7c-0.2,0.3-0.7,2.2-0.7,3.8
			c0,1.6,0.4,2.9,0.4,2.9l0.2,1.3H7v-1.1c0,0,2.7,0.1,5.5,0.1c2.8,0,5.5-0.1,5.5-0.1v1.1h2.6l0.2-1.3c0,0,0.4-1.3,0.4-2.9
			C21.3,11.9,20.8,10.1,20.5,9.7z M20,10.4c0.1,0.2,0.7,1.4,0.3,1.9c-0.4,0.5-2.6,1.1-3,0.7c-0.3-0.2-0.6-1-0.4-1.2
			C17.4,11.4,19.8,10.2,20,10.4z M8.1,6.3c0.3-0.2,2.5-0.4,4.2-0.5V6c0,0-0.7,0-0.9,0c-0.2,0-0.2,0.6,0,0.6c0.2,0,1,0,1,0s0.9,0,1,0
			c0.2,0,0.2-0.6,0-0.6c-0.2,0-0.9,0-0.9,0V5.8c1.7,0,4,0.3,4.2,0.5c0.3,0.2,0.9,1.9,0.9,2.1c0.1,0.2-3.6,0.5-5.3,0.5
			c-1.7,0-5.4-0.3-5.3-0.5C7.2,8.2,7.8,6.5,8.1,6.3z M5,10.4c0.1-0.2,2.6,1,3.1,1.4c0.2,0.2-0.1,1-0.4,1.2c-0.4,0.3-2.7-0.2-3-0.7
			C4.3,11.8,4.9,10.7,5,10.4z M6.5,15.9c0,0.2-1.7-0.1-1.9-0.3c-0.2-0.2-0.1-0.8-0.1-0.9c0-0.1,1.4,0.1,1.9,0.3
			C6.7,15.1,6.6,15.7,6.5,15.9z M20.3,15.6c-0.2,0.2-1.8,0.5-1.9,0.3c0-0.2-0.1-0.8,0.1-0.9c0.5-0.2,1.9-0.4,1.9-0.3
			C20.5,14.8,20.5,15.3,20.3,15.6z"/>
		<g>
			<path class="st7" d="M8.6,12.7c0.3-0.3,2.9-0.3,3.9-0.3v1.9c0,0-2.6,0-3-0.2C9,13.8,8.4,12.9,8.6,12.7z"/>
			<path class="st7" d="M16.4,12.7c-0.3-0.3-2.9-0.3-3.9-0.3v1.9c0,0,2.6,0,3-0.2C16,13.8,16.6,12.9,16.4,12.7z"/>
		</g>
		<g>
			<g>
				<path class="st7" d="M16.1,16.7c0.3,0.1-2.8,0.1-3.6,0.1v-1.6c0,0,2.1,0,2.5,0.2C15.4,15.6,15.6,16.5,16.1,16.7z"/>
			</g>
			<g>
				<path class="st7" d="M8.9,16.7c-0.3,0.1,2.8,0.1,3.6,0.1v-1.6c0,0-2.1,0-2.5,0.2C9.6,15.6,9.4,16.5,8.9,16.7z"/>
			</g>
		</g>
		<g>
			<path class="st8" d="M12.4,13.3l0.1-0.5l0,0c-0.3,0-0.6,0.3-0.6,0.6c0,0.1,0,0.2,0.1,0.3L12.4,13.3z"/>
			<path class="st8" d="M12.6,13.3l0.4,0.3l0,0c0-0.1,0.1-0.2,0.1-0.3c0-0.3-0.2-0.6-0.6-0.6L12.6,13.3z"/>
			<path class="st8" d="M12.5,13.4L12,13.6c0.1,0.2,0.3,0.3,0.5,0.3c0.2,0,0.4-0.1,0.5-0.3L12.5,13.4z"/>
			<path class="st9" d="M12.5,12.7c-0.4,0-0.7,0.3-0.7,0.7c0,0.4,0.3,0.7,0.7,0.7c0.4,0,0.7-0.3,0.7-0.7
				C13.2,13,12.9,12.7,12.5,12.7z M13.1,13.3c0,0.1,0,0.2-0.1,0.3l0,0l-0.4-0.3l-0.1-0.5C12.8,12.8,13.1,13,13.1,13.3z M12.5,12.7
				L12.5,12.7l-0.1,0.5L12,13.6c0-0.1-0.1-0.2-0.1-0.3C11.9,13,12.2,12.8,12.5,12.7z M12.5,13.9c-0.2,0-0.4-0.1-0.5-0.3l0.5-0.2
				l0.5,0.2C12.9,13.8,12.7,13.9,12.5,13.9z"/>
		</g>
		<g>
			<defs>
				<path id="SVGID_7_" d="M16.4,12.7c-0.3-0.3-2.9-0.3-3.9-0.3c-0.9,0-3.6,0-3.9,0.3c-0.2,0.2,0.4,1.1,0.8,1.4c0.5,0.2,3,0.2,3,0.2
					s2.6,0,3-0.2C16,13.8,16.6,12.9,16.4,12.7z"/>
			</defs>
			<clipPath id="SVGID_8_">
				<use xlink:href="#SVGID_7_"  style="overflow:visible;"/>
			</clipPath>
			<polygon class="st10" points="8.5,13.3 11.9,13.3 11.9,13.4 8.5,13.3 			"/>
			<polygon class="st10" points="16.5,13.3 13.1,13.3 13.1,13.4 16.5,13.3 			"/>
		</g>
		<g>
			<path class="st8" d="M8.6,12.7c0.3-0.3,2.9-0.3,3.9-0.3v1.9c0,0-2.6,0-3-0.2C9,13.8,8.4,12.9,8.6,12.7z"/>
			<path class="st8" d="M16.4,12.7c-0.3-0.3-2.9-0.3-3.9-0.3v1.9c0,0,2.6,0,3-0.2C16,13.8,16.6,12.9,16.4,12.7z"/>
		</g>
	</g>
	<defs>
		<filter id="Adobe_OpacityMaskFilter" filterUnits="userSpaceOnUse" x="3.7" y="17.7" width="17.5" height="12.6">
			<feColorMatrix  type="matrix" values="1 0 0 0 0  0 1 0 0 0  0 0 1 0 0  0 0 0 1 0"/>
		</filter>
	</defs>
	<mask maskUnits="userSpaceOnUse" x="3.7" y="17.7" width="17.5" height="12.6" id="SVGID_9_">
		<g class="st11">
			<linearGradient id="SVGID_10_" gradientUnits="userSpaceOnUse" x1="12.2671" y1="12.5326" x2="12.2671" y2="24.1116">
				<stop  offset="0" style="stop-color:#FFFFFF"/>
				<stop  offset="1" style="stop-color:#000000"/>
			</linearGradient>
			<rect x="0.5" y="17.6" class="st12" width="23.6" height="13.4"/>
		</g>
	</mask>
	<g class="st13">
		
			<linearGradient id="SVGID_11_" gradientUnits="userSpaceOnUse" x1="12.5" y1="-1.5569" x2="12.5" y2="-7.2298" gradientTransform="matrix(1 0 0 -1 0 23)">
			<stop  offset="2.000000e-02" style="stop-color:#4D4A49"/>
			<stop  offset="0.5911" style="stop-color:#9FA0A0"/>
			<stop  offset="0.7867" style="stop-color:#898989"/>
			<stop  offset="0.8933" style="stop-color:#727171"/>
		</linearGradient>
		<path class="st14" d="M7,27l1,2.6l8.2,0.2l1.1-0.6L18,27l-0.3-0.7c0,0-5.4-0.7-5.5-0.7C12.1,25.6,7,27,7,27z"/>
		
			<linearGradient id="SVGID_12_" gradientUnits="userSpaceOnUse" x1="18.1648" y1="2.6248" x2="20.9028" y2="2.6248" gradientTransform="matrix(1 0 0 -1 0 23)">
			<stop  offset="2.000000e-02" style="stop-color:#4D4A49"/>
			<stop  offset="0.5911" style="stop-color:#9FA0A0"/>
			<stop  offset="0.7867" style="stop-color:#898989"/>
			<stop  offset="0.8933" style="stop-color:#727171"/>
		</linearGradient>
		<path class="st15" d="M18.2,21.2l2.3,0.5l0.4-1.1l-0.2-1l-2.1-0.5c0,0-0.4,0.5-0.4,0.6C18.2,19.8,18.2,21.3,18.2,21.2"/>
		
			<linearGradient id="SVGID_13_" gradientUnits="userSpaceOnUse" x1="4.1878" y1="2.7972" x2="7.2405" y2="2.7972" gradientTransform="matrix(1 0 0 -1 0 23)">
			<stop  offset="2.000000e-02" style="stop-color:#4D4A49"/>
			<stop  offset="0.5911" style="stop-color:#9FA0A0"/>
			<stop  offset="0.7867" style="stop-color:#898989"/>
			<stop  offset="0.8933" style="stop-color:#727171"/>
		</linearGradient>
		<path class="st16" d="M4.2,21.2c0,0,0.2-1.7,0.3-1.7c0.1,0,1.8-0.2,1.8-0.2l0.9,0.2L7.1,21L4.2,21.2z"/>
		
			<linearGradient id="SVGID_14_" gradientUnits="userSpaceOnUse" x1="4.1878" y1="-0.7184" x2="8.5727" y2="-0.7184" gradientTransform="matrix(1 0 0 -1 0 23)">
			<stop  offset="2.000000e-02" style="stop-color:#4D4A49"/>
			<stop  offset="0.5911" style="stop-color:#9FA0A0"/>
			<stop  offset="0.7867" style="stop-color:#898989"/>
			<stop  offset="0.8933" style="stop-color:#727171"/>
		</linearGradient>
		<path class="st17" d="M4.9,25.1l-0.7-1.9c0,0,1.5-0.9,1.6-1C5.8,22.3,7.6,22,7.6,22l0.7,0.6l0.3,1.5l-1.7,0.8l-1.8,0.5L4.9,25.1z"
			/>
		
			<linearGradient id="SVGID_15_" gradientUnits="userSpaceOnUse" x1="16.5179" y1="-0.7184" x2="20.9028" y2="-0.7184" gradientTransform="matrix(1 0 0 -1 0 23)">
			<stop  offset="2.000000e-02" style="stop-color:#4D4A49"/>
			<stop  offset="0.5911" style="stop-color:#9FA0A0"/>
			<stop  offset="0.7867" style="stop-color:#898989"/>
			<stop  offset="0.8933" style="stop-color:#727171"/>
		</linearGradient>
		<path class="st18" d="M20.2,25.1l0.7-1.9c0,0-1.5-0.9-1.6-1c-0.1-0.1-1.8-0.3-1.8-0.3l-0.7,0.6l-0.3,1.5l1.7,0.8l1.8,0.5
			L20.2,25.1z"/>
		<g>
			<g>
				<path class="st5" d="M5.1,23.5c-0.2,0.3-0.2,0.7-0.2,0.7s-0.3-0.6,0-0.9c0.2-0.3,1.4-0.6,1.4-0.6S5.3,23.2,5.1,23.5z"/>
				<path class="st5" d="M7.8,22.8c0,0,0.3,0.6,0.2,0.7c-0.1,0.1-1,0.6-1,0.6s0.6-0.5,0.8-0.6C7.9,23.3,7.8,22.8,7.8,22.8z"/>
				<path class="st5" d="M4.7,20.5c0,0,0-0.3,0.1-0.5c0.2-0.2,1-0.3,1-0.3S5.2,20,5,20.1C4.8,20.2,4.7,20.5,4.7,20.5z"/>
				<path class="st5" d="M19.9,23.5c-0.2-0.3-1.2-0.8-1.2-0.8s1.2,0.3,1.4,0.6s0,0.9,0,0.9S20.1,23.8,19.9,23.5z"/>
				<path class="st5" d="M17.2,22.8c0,0-0.2,0.5,0,0.7c0.2,0.2,0.8,0.6,0.8,0.6s-0.9-0.4-1-0.6C16.9,23.4,17.2,22.8,17.2,22.8z"/>
				<path class="st5" d="M20,20.1c-0.2-0.1-0.9-0.4-0.9-0.4s0.9,0.1,1,0.3c0.2,0.2,0.1,0.5,0.1,0.5S20.2,20.2,20,20.1z"/>
			</g>
		</g>
		
			<linearGradient id="SVGID_16_" gradientUnits="userSpaceOnUse" x1="12.5" y1="6.0807" x2="12.5" y2="-7.7143" gradientTransform="matrix(1 0 0 -1 0 23)">
			<stop  offset="0" style="stop-color:#3A3635"/>
			<stop  offset="0.1467" style="stop-color:#403C3B"/>
			<stop  offset="0.4067" style="stop-color:#555353"/>
			<stop  offset="0.4612" style="stop-color:#5A5858"/>
			<stop  offset="0.5217" style="stop-color:#676565"/>
			<stop  offset="0.5844" style="stop-color:#7B7A7B"/>
			<stop  offset="0.7004" style="stop-color:#717070"/>
			<stop  offset="0.8311" style="stop-color:#6A6969"/>
			<stop  offset="0.98" style="stop-color:#4D4A49"/>
		</linearGradient>
		<path class="st19" d="M21.3,21.9c0-1.6-0.4-2.9-0.4-2.9l-0.2-1.3H18v1.1c0,0-2.7-0.1-5.5-0.1c-2.8,0-5.5,0.1-5.5,0.1v-1.1H4.4
			L4.1,19c0,0-0.4,1.3-0.4,2.9c0,1.6,0.5,3.5,0.7,3.8C4.6,26,5.5,26.5,6,26.9C6,26.9,6,27,5.9,27c-0.1,0.1-1.7-0.2-1.8,0
			c-0.2,0.2,0,0.8,0.1,1c0.2,0.2,1.7,0.2,1.8,0.1c0.1-0.1,0.1-0.9,0.2-0.8c0,0,0.1,0,0.2,0c0.2,0.5,1,2.2,1.2,2.5
			c0.3,0.3,1.9,0.5,4.9,0.5c3,0,4.6-0.2,4.9-0.5c0.3-0.3,1-2.1,1.2-2.5c0.1,0,0.1,0.1,0.2,0c0.1,0,0.1,0.7,0.2,0.8
			c0.1,0.1,1.6,0,1.8-0.1c0.2-0.2,0.3-0.8,0.1-1c-0.2-0.2-1.7,0.1-1.8,0c0,0-0.1-0.1-0.1-0.1c0.5-0.4,1.4-0.9,1.6-1.1
			C20.8,25.4,21.3,23.6,21.3,21.9z M16.9,23.6c-0.2-0.2,0.1-1,0.4-1.2c0.4-0.3,2.7,0.2,3,0.7c0.4,0.5-0.2,1.7-0.3,1.9
			C19.8,25.3,17.4,24,16.9,23.6z M7.2,27.1c-0.1-0.2,3.6-0.5,5.3-0.5c1.7,0,5.4,0.3,5.3,0.5c-0.1,0.2-0.7,1.9-0.9,2.1
			c-0.3,0.2-2.5,0.4-4.2,0.5v-0.2c0,0,0.7,0,0.9,0c0.2,0,0.2-0.6,0-0.6c-0.2,0-1,0-1,0s-0.9,0-1,0c-0.2,0-0.2,0.6,0,0.6
			c0.2,0,0.9,0,0.9,0v0.2c-1.7,0-4-0.3-4.2-0.5C7.8,29,7.2,27.3,7.2,27.1z M4.7,23.1c0.4-0.5,2.6-1.1,3-0.7c0.3,0.2,0.6,1,0.4,1.2
			c-0.5,0.4-3,1.7-3.1,1.4C4.9,24.8,4.3,23.7,4.7,23.1z M6.5,20.5c-0.5,0.2-1.9,0.4-1.9,0.3c0-0.1,0-0.7,0.1-0.9
			c0.2-0.2,1.8-0.5,1.9-0.3C6.6,19.8,6.7,20.4,6.5,20.5z M20.5,20.8c0,0.1-1.4-0.1-1.9-0.3c-0.2-0.1-0.1-0.7-0.1-0.9
			c0-0.2,1.7,0.1,1.9,0.3C20.5,20.1,20.5,20.7,20.5,20.8z"/>
		<g>
			<path class="st7" d="M8.6,22.8c0.3,0.3,2.9,0.3,3.9,0.3v-1.9c0,0-2.6,0-3,0.2C9,21.6,8.4,22.6,8.6,22.8z"/>
			<path class="st7" d="M16.4,22.8c-0.3,0.3-2.9,0.3-3.9,0.3v-1.9c0,0,2.6,0,3,0.2C16,21.6,16.6,22.6,16.4,22.8z"/>
		</g>
		<g>
			<g>
				<path class="st7" d="M16.1,18.8c0.3-0.1-2.8-0.1-3.6-0.1v1.6c0,0,2.1,0,2.5-0.2C15.4,19.9,15.6,19,16.1,18.8z"/>
			</g>
			<g>
				<path class="st7" d="M8.9,18.8c-0.3-0.1,2.8-0.1,3.6-0.1v1.6c0,0-2.1,0-2.5-0.2C9.6,19.9,9.4,19,8.9,18.8z"/>
			</g>
		</g>
		<g>
			<path class="st8" d="M12.4,22.2l0.1,0.5l0,0c-0.3,0-0.6-0.3-0.6-0.6c0-0.1,0-0.2,0.1-0.3L12.4,22.2z"/>
			<path class="st8" d="M12.6,22.2l0.4-0.3l0,0c0,0.1,0.1,0.2,0.1,0.3c0,0.3-0.2,0.6-0.6,0.6L12.6,22.2z"/>
			<path class="st8" d="M12.5,22.1L12,21.9c0.1-0.2,0.3-0.3,0.5-0.3c0.2,0,0.4,0.1,0.5,0.3L12.5,22.1z"/>
			<path class="st9" d="M13.2,22.2c0-0.4-0.3-0.7-0.7-0.7c-0.4,0-0.7,0.3-0.7,0.7c0,0.4,0.3,0.7,0.7,0.7
				C12.9,22.8,13.2,22.5,13.2,22.2z M12.5,22.7l0.1-0.5l0.4-0.3l0,0c0,0.1,0.1,0.2,0.1,0.3C13.1,22.5,12.8,22.7,12.5,22.7z
				 M11.9,22.2c0-0.1,0-0.2,0.1-0.3l0.4,0.3l0.1,0.5l0,0C12.2,22.7,11.9,22.5,11.9,22.2z M13,21.9l-0.5,0.2L12,21.9
				c0.1-0.2,0.3-0.3,0.5-0.3C12.7,21.6,12.9,21.7,13,21.9z"/>
		</g>
		<g>
			<defs>
				<path id="SVGID_17_" d="M16.4,22.8c-0.3,0.3-2.9,0.3-3.9,0.3c-0.9,0-3.6,0-3.9-0.3c-0.2-0.2,0.4-1.1,0.8-1.4
					c0.5-0.2,3-0.2,3-0.2s2.6,0,3,0.2C16,21.6,16.6,22.6,16.4,22.8z"/>
			</defs>
			<clipPath id="SVGID_18_">
				<use xlink:href="#SVGID_17_"  style="overflow:visible;"/>
			</clipPath>
			<polygon class="st20" points="8.5,22.2 11.9,22.2 11.9,22.1 8.5,22.1 			"/>
			<polygon class="st20" points="16.5,22.2 13.1,22.2 13.1,22.1 16.5,22.1 			"/>
		</g>
		<g>
			<path class="st8" d="M8.6,22.8c0.3,0.3,2.9,0.3,3.9,0.3v-1.9c0,0-2.6,0-3,0.2C9,21.6,8.4,22.6,8.6,22.8z"/>
			<path class="st8" d="M16.4,22.8c-0.3,0.3-2.9,0.3-3.9,0.3v-1.9c0,0,2.6,0,3,0.2C16,21.6,16.6,22.6,16.4,22.8z"/>
		</g>
	</g>
</g>
</svg>
