<?xml version="1.0" encoding="utf-8"?>
<!-- Generator: Adobe Illustrator 21.1.0, SVG Export Plug-In . SVG Version: 6.00 Build 0)  -->
<svg version="1.1" id="圖層_1" xmlns="http://www.w3.org/2000/svg" xmlns:xlink="http://www.w3.org/1999/xlink" x="0px" y="0px"
	 viewBox="0 0 56 56" style="enable-background:new 0 0 56 56;" xml:space="preserve">
<style type="text/css">
	.st0{fill:url(#SVGID_1_);}
</style>
<linearGradient id="SVGID_1_" gradientUnits="userSpaceOnUse" x1="28" y1="1.8633" x2="28" y2="66.0458">
	<stop  offset="0" style="stop-color:#9C9C9C"/>
	<stop  offset="1" style="stop-color:#4E4D4E"/>
</linearGradient>
<path class="st0" d="M28,54.1C16.3,46.8,9.4,36.1,7.1,21.4c-0.5-3.3-0.7-6.6-0.6-10c0.2-0.1,0.5-0.1,0.7-0.2
	c1.9-0.6,3.8-1.1,5.7-1.8c5.2-1.9,10.3-4,15-7.4c6.7,4.8,13.9,7.5,21.5,9.4c0.1,3.3-0.2,6.7-0.8,10.3c-1.6,10.3-5.7,18.8-12,25.4
	C34.3,49.6,31.4,51.9,28,54.1z"/>
</svg>
