<?xml version="1.0" encoding="utf-8"?>
<!-- Generator: Adobe Illustrator 21.1.0, SVG Export Plug-In . SVG Version: 6.00 Build 0)  -->
<svg version="1.1" id="圖層_1" xmlns="http://www.w3.org/2000/svg" xmlns:xlink="http://www.w3.org/1999/xlink" x="0px" y="0px"
	 viewBox="0 0 56 56" style="enable-background:new 0 0 56 56;" xml:space="preserve">
<style type="text/css">
	.st0{fill:url(#SVGID_1_);}
</style>
<linearGradient id="SVGID_1_" gradientUnits="userSpaceOnUse" x1="27" y1="7.1947" x2="27" y2="50.2063">
	<stop  offset="0" style="stop-color:#9C9C9C"/>
	<stop  offset="1" style="stop-color:#4E4D4E"/>
</linearGradient>
<path class="st0" d="M38.9,37.9c-1.6,0-3,0.7-4,1.8l-11.7-6.4c0.3-0.8,0.5-1.6,0.5-2.5c0-1.5-0.5-2.9-1.3-4l11.9-9.9
	c0.9,0.7,2.1,1.2,3.3,1.2c2.9,0,5.3-2.4,5.3-5.3c0-2.9-2.4-5.3-5.3-5.3c-2.9,0-5.3,2.4-5.3,5.3c0,1,0.3,1.9,0.7,2.7l-11.9,9.9
	c-1.2-1-2.8-1.6-4.5-1.6c-3.9,0-7,3.1-7,7c0,3.9,3.1,7,7,7c2.3,0,4.3-1.1,5.6-2.9L34,41.3c-0.2,0.6-0.3,1.2-0.3,1.9
	c0,2.9,2.4,5.3,5.3,5.3c2.9,0,5.3-2.4,5.3-5.3S41.9,37.9,38.9,37.9z"/>
</svg>
