<?xml version="1.0" encoding="utf-8"?>
<!-- Generator: Adobe Illustrator 20.1.0, SVG Export Plug-In . SVG Version: 6.00 Build 0)  -->
<svg version="1.1" id="Ebene_1" xmlns="http://www.w3.org/2000/svg" xmlns:xlink="http://www.w3.org/1999/xlink" x="0px" y="0px"
	 viewBox="0 0 1405.2 208" style="enable-background:new 0 0 1405.2 208;" xml:space="preserve">
<style type="text/css">
	.st0{fill:#FFFFFF;}
</style>
<g>
	<g>
		<g>
			<g>
				<g>
					<g>
						<g>
							<path class="st0" d="M395.4,181.5v-5.3h22.9v5.3H395.4z"/>
							<g>
								<path class="st0" d="M14,144l-2.1,53.3c0,0.3,0,0.6,0,0.9c0,4.5,1.3,5.4,8.5,6v2.5c-5.2-0.4-7.3-0.5-10.2-0.5
									c-2.9,0-4.9,0.1-10.3,0.5v-2.5c7.2-0.5,8.2-1.3,8.4-6.9l2.2-50.4c0-0.2,0-0.4,0-0.6c0-4.7-1.4-5.7-8.5-6.2v-2.6
									c4,0.3,5.5,0.4,8.4,0.4c3.8,0,5.9-0.1,9.8-0.5l19.1,51.9l19.4-51.9c4.6,0.4,6.8,0.5,9.9,0.5c2.6,0,4.2-0.1,8.1-0.4v2.6
									c-7,0.4-8.5,1.4-8.5,6.1v0.7l1.1,50.4c0.1,5.5,1,6.4,8.4,6.9v2.5c-6.5-0.6-8.9-0.8-12.8-0.8c-3.9,0-6.4,0.2-12.8,0.8v-2.5
									c7-0.4,8.5-1.5,8.5-6.4v-0.5l-0.9-53.2l-16.9,45.8l-1.2,3.4l-1.4,3.8l-1.3,3.9l-1.1,3.4H36l-1.1-3.3l-1.4-4l-1.4-4l-1.2-3.6
									L14,144z"/>
								<path class="st0" d="M104.4,204c-9.3,0-13.4-7.2-13.5-23.2h30.6c-0.2-15.8-6.7-24.2-18.8-24.2c-12.3,0-20,10-20,25.8
									c0,15.8,7.7,25,20.9,25c10.1,0,16.6-6.3,18-16.8h-4.1C116.2,199.3,111.7,204,104.4,204z M91,177.1
									c1-11.8,4.9-17.9,11.5-17.9c6.7,0,10.1,5.7,10.7,17.9H91z"/>
								<path class="st0" d="M127.5,160.4v-1.8c5.9-0.5,9.3-1.1,13.6-2.4c0.5,3.8,0.7,5.4,0.9,8.5v1.1c2.3-5.9,6.7-9.2,12-9.2
									c5.1,0,8.9,3.4,8.9,8.3c0,3-1.7,4.9-4.3,4.9c-2.4,0-4.2-1.4-4.2-3.5c0-0.2,0.1-0.6,0.2-1l0.2-1c0-0.3,0-0.6,0-0.9
									c0-1.4-1.2-2.5-3.1-2.5c-5.3,0-8.7,6.5-8.7,16.6V199c0,4.4,1,5.2,7.3,5.5v2.1c-5.6-0.5-7.8-0.6-11.4-0.6
									c-3.7,0-5.9,0.1-11.5,0.6v-2.1c6.3-0.3,7.4-1.1,7.4-5.5v-31.9v-1.6c-0.1-4.4-0.6-4.9-6-5H127.5z"/>
								<path class="st0" d="M202.2,155.7v16.9H200c-1.8-8.9-5.6-13.2-11.9-13.2c-7.7,0-12.2,8.3-12.2,23c0,14.4,4,21.7,11.9,21.7
									c6.4,0,10.2-4.5,11.4-13.6h4.2c-1.3,11-7.2,16.9-16.4,16.9c-11.9,0-20-10.1-20-25c0-15.3,8.2-25.8,20.3-25.8
									c4.4,0,7.2,1.1,10.5,4.3l2.8-5.2H202.2z"/>
								<path class="st0" d="M232.4,204c-9.3,0-13.4-7.2-13.5-23.2h30.6c-0.2-15.8-6.7-24.2-18.8-24.2c-12.3,0-20,10-20,25.8
									c0,15.8,7.7,25,20.9,25c10.1,0,16.6-6.3,18-16.8h-4.1C244.2,199.3,239.7,204,232.4,204z M219.1,177.1
									c1-11.8,4.9-17.9,11.5-17.9c6.7,0,10.1,5.7,10.7,17.9H219.1z"/>
								<path class="st0" d="M297.2,195.9v-59.3c-5.1,1.4-9.8,2.2-15.5,2.8v1.7c6.5,0,7.3,0.7,7.3,6.1v18c-3.8-6.2-6.8-8-12.3-8
									c-11,0-18.7,10.4-18.7,25.1c0,14.8,7.8,25.2,19,25.2c5.9,0,9.9-2.7,12.7-8.4c0.4,3.9,0.4,4.3,1.4,8.2c4.2-1.3,6-1.7,12-2.5
									l1.5-0.2v-1.7C297.8,202.7,297.2,202.2,297.2,195.9z M277.9,204.6c-7.4,0-11.3-7.7-11.3-22.4c0-14.9,3.6-22.2,11-22.2
									c7.6,0,11.5,7.8,11.5,22.9C289.1,197.3,285.3,204.6,277.9,204.6z"/>
								<path class="st0" d="M330.3,204c-9.3,0-13.4-7.2-13.6-23.2h30.6c-0.2-15.8-6.7-24.2-18.8-24.2c-12.3,0-20,10-20,25.8
									c0,15.8,7.7,25,20.9,25c10.1,0,16.6-6.3,18-16.8h-4.1C342.1,199.3,337.6,204,330.3,204z M317,177.1
									c1-11.8,4.9-17.9,11.5-17.9c6.7,0,10.1,5.7,10.7,17.9H317z"/>
								<path class="st0" d="M356.1,207.5v-17.1l2.3-0.1c1.9,9.3,6.2,13.9,13.3,13.9c6.1,0,10.6-4,10.6-9.2c0-3.5-2-5.9-7-8.1
									l-3.9-1.7l-4.7-2.2c-7.5-3.5-9.9-6.4-9.9-12.3c0-8.1,6.4-13.7,15.4-13.7c4,0,7,0.9,10.5,3.3l1.7-4.2h1.8v15.9h-2.4
									c-0.9-8.2-4.3-12.1-10.8-12.1c-5.4,0-9.6,3.7-9.6,8.5c0,4.1,1.5,5.4,10.9,9.5l4.3,1.8c7.8,3.4,10.6,6.7,10.6,12.7
									c0,8.6-6.9,14.8-16.5,14.8c-4.7,0-8.4-1.2-12.3-4.3l-2.5,4.6H356.1z"/>
							</g>
							<g>
								<path class="st0" d="M466.9,154.6c0-5.3-2.3-10.1-6.2-13c-3.5-2.6-7.5-3.7-14.2-3.7h-27v2.6c7.4,0.4,8.4,1.2,8.4,6.8v49.8
									c0,5.5-0.8,6.3-8.4,6.9v2.5h26c7.6,0,11.7-0.9,16-3.6c5.1-3.3,8.5-9.5,8.5-16c0-5.5-2.4-10.6-6.4-13.7
									c-2.2-1.6-4.4-2.6-8.1-3.3C463,167,466.9,161.7,466.9,154.6z M436.6,141h8.7c8.6,0,12.4,4.2,12.4,13.8
									c0,4.7-1.1,8.1-3.4,10.8c-2.3,2.6-5,3.4-10.8,3.4h-7V141z M446.3,172.1c5.4,0,8.5,0.9,10.9,3.3c2.4,2.4,3.7,6.8,3.7,11.7
									c0,10.3-5.1,16-14.3,16h-3.7c-5.4,0-6.4-0.8-6.4-5.3v-25.7H446.3z"/>
								<path class="st0" d="M500.1,204c-9.3,0-13.4-7.2-13.6-23.2h30.6c-0.2-15.8-6.7-24.2-18.8-24.2c-12.3,0-20,10-20,25.8
									c0,15.8,7.7,25,20.9,25c10.1,0,16.6-6.3,18-16.8h-4.1C511.9,199.3,507.4,204,500.1,204z M486.8,177.1
									c1-11.8,4.9-17.9,11.5-17.9c6.7,0,10.1,5.7,10.7,17.9H486.8z"/>
								<path class="st0" d="M522.6,160.8v-1.7c6-0.8,9.4-1.6,13.6-3.1c0.5,2.4,0.8,5,1,8.9c3.7-5.5,7.9-8,13.9-8
									c6.2,0,11.5,3.2,13.6,8.2c1,2.5,1.5,5.3,1.5,9.2V199c0,4.4,1,5.2,7.3,5.5v2.1c-5.4-0.5-7.5-0.6-11.2-0.6
									c-3.8,0-5.9,0.1-11.2,0.6v-2.1c5.5-0.2,6.9-1.2,6.9-5.3v-25.1c0-8.9-2.7-12.5-9.2-12.5c-7,0-10.7,4.4-10.7,12.8v24.8
									c0,4.1,1.3,5.1,6.7,5.3v2.1c-5.3-0.5-7.4-0.6-11.1-0.6c-3.6,0-5.8,0.1-11.1,0.6v-2.1c6.3-0.3,7.3-1.1,7.3-5.5v-31.7v-1.5
									c-0.1-4.2-0.7-4.8-5.9-4.8C523.6,160.9,523.1,160.8,522.6,160.8z"/>
								<path class="st0" d="M577.4,206.3l27.8-45.8h-12.6c-6.7,0-8.3,1.4-12,10.7h-2.1l2.4-13.3h35.3l-27.9,45.8h12
									c7,0,9.9-2.8,12.9-12.1h2.2l-2.7,14.8H577.4z"/>
							</g>
						</g>
					</g>
				</g>
			</g>
		</g>
		<path class="st0" d="M666.2,197.4c0,5.6,0.8,6.3,8.5,6.9v2.5c-6.1-0.6-9.1-0.8-12.9-0.8c-3.9,0-6.9,0.2-12.9,0.8v-2.5
			c7.6-0.7,8.4-1.3,8.4-6.9v-50.3c0-5.6-1-6.4-8.4-6.9v-2.5h44.8l1.9,15.4h-2.4c-2.6-9.8-4.9-12.3-12.2-12.3h-14.9v28.2h14.7
			c4.6,0,5.8-1.5,6.1-8.4h2.6v20.2H687c-0.2-6.8-1.6-8.6-6.6-8.6h-14.2V197.4z"/>
		<path class="st0" d="M717,199.2c0,4.4,1,5.3,7.4,5.6v2.1c-5.6-0.5-8.2-0.6-11.5-0.6c-3.3,0-6,0.1-11.5,0.6v-2.1
			c6.4-0.3,7.4-1.1,7.4-5.6v-32.5c0-5.4-0.7-6-7.3-6.1v-1.8c5.1-0.4,11-1.4,15.6-2.7V199.2z M718.2,143.4c0,3.2-2.5,5.7-5.7,5.7
			c-3.1,0-5.6-2.6-5.6-5.7c0-3.1,2.5-5.6,5.6-5.6C715.7,137.8,718.2,140.3,718.2,143.4z"/>
		<path class="st0" d="M730.2,159.1c5.8-0.8,10.2-1.8,13.6-3.1c0.5,1.8,0.9,5.2,1.1,9c3.8-5.6,7.9-8,13.9-8c5.5,0,10.2,2.5,12.8,6.7
			c1.5,2.5,2.3,6,2.3,10.8v24.7c0,4.4,1.1,5.3,7.4,5.6v2.1c-5.2-0.5-7.7-0.6-11.3-0.6c-3.4,0-6.1,0.1-11.1,0.6v-2.1
			c5.5-0.2,6.8-1.2,6.8-5.4v-25.2c0-4.7-0.4-7-1.6-9c-1.5-2.4-4.2-3.6-7.5-3.6c-3.6,0-6.8,1.6-8.8,4.4c-1.4,2-2,4.2-2,8.6v24.8
			c0,4.1,1.3,5.2,6.7,5.4v2.1c-5-0.5-7.7-0.6-11.1-0.6c-3.5,0-6.1,0.1-11.2,0.6v-2.1c6.4-0.3,7.4-1.1,7.4-5.6v-31.8
			c0-5.9-0.4-6.3-6-6.4h-1.3V159.1z"/>
		<path class="st0" d="M828.1,206.5c-2.4,0.5-3.9,0.7-5.7,0.7c-5,0-7.3-2.6-7.9-8.8c-3.7,6.6-7.3,9-13.9,9
			c-8.4,0-14.3-5.5-14.3-13.3c0-6.3,3.7-10.8,11.7-14.1c4.7-2,9.2-3.1,15.2-3.8V170c0-3.9-0.4-5.9-1.6-7.4c-1.4-1.9-3.9-2.9-6.9-2.9
			c-5,0-8.5,2.5-8.5,6.1v0.8c0.1,0.7,0.1,1.2,0.1,1.6c0,2.9-1.4,4.4-4.2,4.4c-2.2,0-3.4-1.2-3.4-3.5c0-6.6,7.8-12.3,16.9-12.3
			c5.8,0,11.1,2.4,13.7,6.2c1.6,2.4,2.3,5.5,2.3,10.8v21c0,7,0.9,9.2,4,9.2c0.8,0,1.3-0.1,2.6-0.3V206.5z M813.2,178.9
			c-13,2.3-18.6,6.7-18.6,14.7c0,5.9,3.2,9.4,8.5,9.4c7.1,0,10.1-4.5,10.1-15.2V178.9z"/>
		<path class="st0" d="M833.4,159.1c5.8-0.8,10.2-1.8,13.6-3.1c0.5,1.8,0.9,5.2,1.1,9c3.8-5.6,7.9-8,13.9-8c5.5,0,10.2,2.5,12.8,6.7
			c1.5,2.5,2.3,6,2.3,10.8v24.7c0,4.4,1.1,5.3,7.4,5.6v2.1c-5.2-0.5-7.7-0.6-11.3-0.6c-3.4,0-6.1,0.1-11.1,0.6v-2.1
			c5.5-0.2,6.8-1.2,6.8-5.4v-25.2c0-4.7-0.4-7-1.6-9c-1.5-2.4-4.2-3.6-7.5-3.6c-3.6,0-6.8,1.6-8.8,4.4c-1.4,2-2,4.2-2,8.6v24.8
			c0,4.1,1.3,5.2,6.7,5.4v2.1c-5-0.5-7.7-0.6-11.1-0.6c-3.5,0-6.1,0.1-11.2,0.6v-2.1c6.4-0.3,7.4-1.1,7.4-5.6v-31.8
			c0-5.9-0.4-6.3-6-6.4h-1.3V159.1z"/>
		<path class="st0" d="M924.5,172.7h-2.3c-0.8-3.6-1.3-5.3-2.5-7.3c-2-3.7-5.6-6-9.5-6c-7.8,0-12.3,8.4-12.3,23.1
			c0,14.4,4,21.7,11.9,21.7c6.4,0,10.2-4.5,11.4-13.6h4.1c-1.2,11-7.1,17-16.4,17c-12.1,0-20.1-10.1-20.1-25c0-15.4,8.3-26,20.4-26
			c4.3,0,7.2,1.2,10.5,4.3l2.7-5.3h1.9V172.7z"/>
		<path class="st0" d="M947.6,199.2c0,4.4,1,5.3,7.4,5.6v2.1c-5.6-0.5-8.2-0.6-11.5-0.6c-3.3,0-6,0.1-11.5,0.6v-2.1
			c6.4-0.3,7.4-1.1,7.4-5.6v-32.5c0-5.4-0.7-6-7.3-6.1v-1.8c5.1-0.4,11-1.4,15.6-2.7V199.2z M948.8,143.4c0,3.2-2.5,5.7-5.7,5.7
			c-3.1,0-5.6-2.6-5.6-5.7c0-3.1,2.5-5.6,5.6-5.6C946.3,137.8,948.8,140.3,948.8,143.4z"/>
		<path class="st0" d="M1002.2,206.5c-2.4,0.5-3.9,0.7-5.7,0.7c-5,0-7.3-2.6-7.9-8.8c-3.7,6.6-7.3,9-13.9,9
			c-8.4,0-14.3-5.5-14.3-13.3c0-6.3,3.7-10.8,11.7-14.1c4.7-2,9.2-3.1,15.2-3.8V170c0-3.9-0.4-5.9-1.6-7.4c-1.4-1.9-3.9-2.9-6.9-2.9
			c-5,0-8.5,2.5-8.5,6.1v0.8c0.1,0.7,0.1,1.2,0.1,1.6c0,2.9-1.4,4.4-4.2,4.4c-2.2,0-3.4-1.2-3.4-3.5c0-6.6,7.8-12.3,16.9-12.3
			c5.8,0,11.1,2.4,13.7,6.2c1.6,2.4,2.3,5.5,2.3,10.8v21c0,7,0.9,9.2,4,9.2c0.8,0,1.3-0.1,2.6-0.3V206.5z M987.4,178.9
			c-13,2.3-18.6,6.7-18.6,14.7c0,5.9,3.2,9.4,8.5,9.4c7.1,0,10.1-4.5,10.1-15.2V178.9z"/>
		<path class="st0" d="M1021.9,199.2c0,4.4,1,5.3,7.4,5.6v2.1c-5.6-0.5-8.2-0.6-11.5-0.6c-3.3,0-6,0.1-11.5,0.6v-2.1
			c6.4-0.3,7.4-1.1,7.4-5.6v-52c0-5.3-0.8-6-7.3-6v-1.9c5-0.4,10.8-1.4,15.6-2.7V199.2z"/>
		<path class="st0" d="M1066.6,185.7c2.1,12.3,8.2,18.5,18.2,18.5c8.3,0,14.2-5.6,14.2-13.6c0-4-1.6-7.4-4.6-9.7
			c-2.1-1.5-3.2-2.2-9.9-5.7c-9.9-5-12.4-6.6-14.8-9c-2.9-2.9-4.3-6.6-4.3-11.3c0-10.8,7.9-18.1,19.7-18.1c5.7,0,9.4,1.4,13.4,5.4
			l3.1-5.8h1.9v19h-2.5c-2.4-10.6-7.1-15.5-15.1-15.5c-7.3,0-13,5.5-13,12.6c0,4,1.9,7,5.9,9.5c2.4,1.4,2.5,1.5,10,5.4
			c6.6,3.3,9.2,4.7,11.7,6.8c4.1,3.1,6.3,7.7,6.3,13.6c0,11.6-8.4,19.7-20.6,19.7c-6.4,0-11.3-1.8-16.3-6l-3.7,6.6h-1.9v-22.4
			H1066.6z"/>
		<path class="st0" d="M1152.6,190.6c-1.2,10.6-8,16.9-18.3,16.9c-12.7,0-20.7-9.8-20.7-25.4c0-15,8.1-25.2,20.2-25.2
			c11.6,0,18.4,8.8,18.7,24.2h-30.6c0.2,7.7,0.7,11.4,2,14.7c2.2,5.6,6.1,8.3,11.6,8.3c7.2,0,11.8-4.7,13.1-13.5H1152.6z
			 M1144.3,177.3c-0.5-12.1-4-17.8-10.6-17.8c-6.7,0-10.5,6-11.5,17.8H1144.3z"/>
		<path class="st0" d="M1159.2,158.7c5.5-0.5,9.9-1.3,13.6-2.5c0.6,4,0.8,5.7,0.9,9.8c2.4-6,6.7-9.4,12.1-9.4c5.3,0,9,3.5,9,8.3
			c0,3-1.6,4.9-4.3,4.9c-2.4,0-4.2-1.4-4.2-3.4c0-0.5,0-0.5,0.4-2.2c0.1-0.3,0.1-0.6,0.1-0.9c0-1.4-1.3-2.5-3.1-2.5
			c-5.5,0-8.9,6.5-8.9,16.7v21.5c0,4.4,1.1,5.3,7.4,5.6v2.1c-5.5-0.5-8.1-0.6-11.5-0.6c-3.5,0-6.2,0.1-11.5,0.6v-2.1
			c6.3-0.3,7.4-1.1,7.4-5.6v-32c0-6.4-0.1-6.6-7.3-6.7V158.7z"/>
		<path class="st0" d="M1222.1,207.7c-1.4-3.8-2.4-6.5-3-8l-1-2.8l-11.9-32.7c-1.4-3.7-2.6-4.4-7.7-4.6v-2.1c6.1,0.5,8.3,0.6,11,0.6
			c3,0,4.9-0.1,10.5-0.6v2.1c-4.4,0.2-5.6,0.7-5.6,2.4c0,0.6,0,0.6,0.6,2.4l10.9,31.3l11.2-31c0.7-1.8,0.8-2.4,0.8-3
			c0-1.4-0.8-1.9-5.2-2.1v-2.1c5.3,0.3,6.6,0.4,8,0.4c1.2,0,2.9-0.1,7.6-0.4v2.1c-4.8,0.2-6.2,1.1-7.7,5l-11.8,31.9
			c-0.4,1.2-1.1,3.2-2.2,5.8c-0.4,1.1-0.6,1.6-2,5.4H1222.1z"/>
		<path class="st0" d="M1268.3,199.2c0,4.4,1,5.3,7.4,5.6v2.1c-5.6-0.5-8.2-0.6-11.5-0.6c-3.3,0-6,0.1-11.5,0.6v-2.1
			c6.4-0.3,7.4-1.1,7.4-5.6v-32.5c0-5.4-0.7-6-7.3-6.1v-1.8c5.2-0.4,11-1.4,15.6-2.7V199.2z M1269.4,143.4c0,3.2-2.5,5.7-5.7,5.7
			c-3.1,0-5.6-2.6-5.6-5.7c0-3.1,2.5-5.6,5.6-5.6C1266.9,137.8,1269.4,140.3,1269.4,143.4z"/>
		<path class="st0" d="M1316.4,172.7h-2.3c-0.8-3.6-1.3-5.3-2.5-7.3c-2-3.7-5.6-6-9.5-6c-7.8,0-12.3,8.4-12.3,23.1
			c0,14.4,4,21.7,11.9,21.7c6.4,0,10.2-4.5,11.4-13.6h4.1c-1.2,11-7.1,17-16.4,17c-12.1,0-20.1-10.1-20.1-25c0-15.4,8.3-26,20.4-26
			c4.3,0,7.2,1.2,10.5,4.3l2.7-5.3h1.9V172.7z"/>
		<path class="st0" d="M1363.8,190.6c-1.2,10.6-8,16.9-18.3,16.9c-12.7,0-20.7-9.8-20.7-25.4c0-15,8.1-25.2,20.2-25.2
			c11.6,0,18.4,8.8,18.7,24.2h-30.6c0.2,7.7,0.7,11.4,2,14.7c2.2,5.6,6.1,8.3,11.6,8.3c7.2,0,11.8-4.7,13.1-13.5H1363.8z
			 M1355.4,177.3c-0.5-12.1-4-17.8-10.6-17.8c-6.7,0-10.5,6-11.5,17.8H1355.4z"/>
		<path class="st0" d="M1372,190.5h2.3c0.6,3.3,1.2,5,2.3,7.2c2.1,4,6.3,6.6,11.1,6.6c6,0,10.6-4,10.6-9.3c0-3.2-1.5-5.3-5.8-7.4
			c-0.1-0.1-3.5-1.6-9.9-4.6c-7.5-3.4-9.9-6.4-9.9-12.4c0-8,6.3-13.7,15.4-13.7c3.9,0,6.9,0.9,10.5,3.3l1.8-4.2h1.8v16h-2.3
			c-0.9-8.2-4.4-12.2-10.8-12.2c-5.5,0-9.7,3.7-9.7,8.4c0,3.3,1.5,5.2,5.8,7.3c1.4,0.7,2.3,1,9.5,4.2c7.7,3.4,10.5,6.8,10.5,12.8
			c0,8.7-6.9,14.8-16.5,14.8c-4.6,0-8.5-1.3-12.5-4.2l-2.5,4.5h-1.8V190.5z"/>
	</g>
	<g>
		<path class="st0" d="M493.4,1.3c1.7,0.3,2.7,0.9,2.7,2c0,1.3-1.2,2.4-3.7,3.2v4.1h30.4l4.8-4.9l6.6,5.4c0.8,0.4,1.2,1.3,1.2,2.4
			c0,0.7-0.7,1.3-1.8,1.7l-2.7,0.7c-2.5,2.7-5.6,5.5-9.6,8.6l-2.3-0.8c1.9-3.7,3.2-7,4.2-10.1h-66.9c-0.6,4.8-1.4,8.3-2.7,10.2
			c-1.3,2.4-2.9,3.6-4.4,3.6c-2.5,0-3.7-1.4-3.7-4.1c0-1,0.4-2.2,1.2-3.3c1.2-1.4,2.4-2.8,3.4-4.4c1.2-2.1,2.7-5.5,4.3-10.1l2.2,0.3
			c-0.1,1.9-0.2,3.4-0.2,4.9h28.4V6.1c0-0.9-0.2-2.9-0.4-6.1L493.4,1.3z M471.9,21.6h31.2l5.2-6.6l7,5.6c0.8,0.7,1.1,1.5,1.1,2.2
			c0,1-0.6,1.6-1.5,1.6h-22.2V38c7.3-2.9,13.9-6.2,19.7-9.9l6,4.2c0.7,0.6,1,1.5,1,2.4c0,0.8-1.4,1.3-4.1,1.3
			c-8.4,3.7-16.7,6.6-24.9,8.9h22.3l4.5-4.8l5.5,4.9c1,0.8,1.5,1.5,1.5,2c0,0.7-0.4,1.3-1,1.6l-2.3,1.3V71l0.4,9
			c0,0.9-0.5,1.7-1.3,2.2c-0.8,0.8-1.6,1.1-2.8,1.1c-2.5,0-3.7-0.6-3.7-2.1v-0.8h-43.1v0.4c0,1.3-0.7,2.2-1.8,2.8
			c-1.1,0.6-2.3,0.8-3.3,0.8c-1.4,0-2.2-0.7-2.3-2.4l0.4-10.7V50.2c-5,0.8-10.4,1.5-16,2.1l-1-2.1c15-2.8,27.3-5.7,36.6-8.8
			c0.8-0.2,1.6-0.5,2.4-0.7V24.5h-13.4c-3.5,0-6.9,0.3-10.4,0.8l-1.9-4.9C463.8,21.2,467.8,21.6,471.9,21.6z M486.4,86.6
			c0.8,0.6,1.1,1.3,1.1,1.9c0,0.9-1.5,1.5-4.5,1.7c-5.4,1.6-11,2.9-16.9,4.1c-3.6,0.6-9,1.5-16.4,2.5l-1.1-1.7
			c6.9-2.1,12.5-4.1,16.8-5.7c5.1-2.3,10-4.6,14.3-7.3L486.4,86.6z M477,30c1.3,0.7,2,1.6,2,2.6c0,0.8-1.4,1.5-4.1,1.7
			c-4,2.3-8.3,4.2-12.9,5.7c-2.9,0.9-6.3,1.9-10.1,2.8l-1.1-2.1c4.8-2.2,8.7-4.4,11.8-6.6c3-2.1,5.8-4.5,8.3-7.2L477,30z
			 M513.5,55.5v-7.7h-35.4c-2.5,0.5-5,0.9-7.7,1.4v6.4H513.5z M513.5,66.5v-8.2h-43.1v8.2H513.5z M513.5,77.5v-8.2h-43.1v8.2H513.5z
			 M524.1,86.8c5.3,1.5,8,3.1,8,5c0,2.9-1.5,4.5-4.5,4.5c-1,0-2.4-0.5-3.9-1.5c-6.2-3.2-14.2-6.6-23.9-10l1.5-2
			C510.9,84,518.5,85.4,524.1,86.8z"/>
		<path class="st0" d="M581.9,39.2h25.3V10.6c0-1-0.2-3.3-0.4-6.9l9.7,1.5c1.9,0.3,2.9,1,2.9,2.2c0,1.5-1.4,2.7-4.1,3.7v28.2h25.6
			l6-7l7.6,6.3c0.8,0.8,1.2,1.6,1.2,2.3c0,1.1-0.7,1.7-1.8,1.7h-38.6v44.9h20.4l5.9-7l7.7,6.3c0.8,0.7,1.2,1.5,1.2,2.3
			c0,1-0.7,1.7-1.9,1.7h-62.3c-4,0-8,0.2-11.9,0.8l-1.9-5.3c4.6,0.8,9.2,1.3,13.8,1.3h20.8V42.4h-25.3c-4,0-7.9,0.3-11.9,0.8
			l-1.8-5.3C572.8,38.8,577.4,39.2,581.9,39.2z"/>
		<path class="st0" d="M760.1,11h4.5l5.1-6.1l6.7,5.2c0.7,0.7,1,1.5,1,2.1c0,1.1-0.5,1.7-1.4,1.7h-16c-3.5,0-7,0.3-10.5,0.7
			l-1.8-4.8C751.9,10.7,756,11,760.1,11z M774.2,28.1c-5.4,3.8-11.6,7.3-18.5,10.7l-0.9,3.6c-0.2,0.9-0.7,1.4-1.4,1.4
			c-0.8,0-1.2-0.5-1.4-1.8l-3.3-9.7c8.6-1.6,17-3.6,25.2-6.1L774.2,28.1z M787.4,84c0.8,0.7,1.2,1.5,1.2,2.1c0,0.9-1.5,1.5-4.4,1.7
			c-5.3,2.3-10.7,4.2-16.4,5.9c-3.4,0.8-8.7,2-15.9,3.4l-1.1-2c6.6-2.6,12-4.9,16-7c4.9-2.7,9.6-5.6,13.8-8.9L787.4,84z M770.9,44.5
			h43.7l4.6-4.9l5.5,4.9c1,0.8,1.5,1.5,1.5,2c0,0.7-0.4,1.3-1,1.6l-2.3,1.3v18.4l0.4,9c0,0.9-0.5,1.7-1.2,2.2c-0.8,0.7-1.7,1-2.9,1
			c-2.5,0-3.7-0.6-3.7-2v-1.3h-44.6v0.4c0,1.3-0.6,2.2-1.6,2.6c-1.1,0.7-2.3,1-3.6,1c-1.7,0-2.6-0.9-2.6-2.8l0.4-10.2V46.9
			c0-3.6-0.3-5.9-0.8-6.9L770.9,44.5z M815.4,54.2v-6.9h-44.6v6.9H815.4z M815.4,64.1v-6.9h-44.6v6.9H815.4z M815.4,73.9v-7h-44.6v7
			H815.4z M808.9,17.8c1.6,0.4,2.5,1.1,2.5,2.2c0,0.7-0.6,1.3-1.6,1.6l-2.1,0.5c-0.1,0.1-0.1,0.1-0.1,0.1c2,2,3.8,3.4,5.3,4.4
			c1.8,1.3,3.7,2.3,5.7,3.1c2.5,1,5.4,1.8,8.7,2.3c3.8,0.5,7.4,0.8,10.7,1l-0.4,2.9c-1.1,0-2.2,0.3-3.1,0.7c-0.8,0.2-1.7,2-2.8,5.3
			c-4-0.8-7.4-1.9-10.1-3.2c-2.7-1-4.8-2.2-6.6-3.7c-1.9-1.3-3.7-3.1-5.4-5.4c-1.3-1.5-2.5-3.1-3.5-5c-1.5,2.3-2.9,4.2-4.3,5.4
			c-1.9,2.1-4.2,3.8-6.7,5c-2.5,1.5-5.4,2.7-8.6,3.8c-3.5,1.1-7.6,2.2-12.3,3.1l-1.1-1.7c4.5-1.4,8.3-2.8,11.3-4.4
			c2.7-1.3,4.9-2.7,6.7-4.4c2.3-2,4.2-4.1,5.6-6.4c1.6-2.5,3-5.7,4.2-9.7L808.9,17.8z M797.9,2c1.5,0.4,2.4,1,2.4,2.1
			c0,0.8-0.6,1.4-1.7,1.4l-3.1,1c-1.1,1.7-2.2,3.1-3.2,4.5h32.5l4.8-4.9l6.6,5.4c0.8,0.4,1.2,1.3,1.2,2.4c0,0.7-0.7,1.3-1.8,1.7
			l-2.7,0.7c-2.3,2.4-5.4,5-9.2,7.7l-2.3-0.8c1.7-3.3,2.9-6.5,3.8-9.3h-35.2c-0.9,0.9-1.6,1.8-2.3,2.5c-2.3,2.4-5.3,5.2-9.3,8.5
			l-1.5-2c2.9-4,5.4-7.7,7.4-11.5c2-3.7,3.6-7.4,4.8-11.4L797.9,2z M824.8,85.4c5,1.9,7.6,4,7.6,6.5c0,2.9-1.5,4.5-4.4,4.5
			c-1,0-2.3-0.6-3.8-1.8c-5.9-4.2-13.5-8.3-23-12.5l1.5-2.1C812,81.5,819.3,83.3,824.8,85.4z"/>
		<path class="st0" d="M883.8,7.3h20.8l5.2-6.5l6.9,5.5c0.8,0.8,1.2,1.6,1.2,2.2c0,1-0.6,1.6-1.5,1.6h-32.7c-3.4,0-6.9,0.3-10.4,0.8
			l-1.9-4.9C875.7,6.9,879.8,7.3,883.8,7.3z M879,45.7h29.4l3.3-4.1l5.6,4.4c0.7,0.6,1,1.1,1,1.8c0,0.6-0.4,1.1-1,1.4l-2.4,1.5V87
			c0,3-1.3,5.5-3.8,7.5c-2.2,1.5-4.1,2.3-5.8,2.3c0-2.3-0.2-3.9-0.6-4.6c-0.4-0.8-2.2-1.8-5.4-2.8v-2l7.4,0.4c1,0,1.5-0.7,1.5-2.1
			V48.6H879v44.8c0,1-0.5,1.9-1.3,2.3c-1,0.6-2,1-3,1c-1.4,0-2.2-0.8-2.3-2.5V48.2c0-3.3-0.3-5.5-0.8-6.6L879,45.7z M885,18.7h17.5
			l4-4.5l5.6,4.7c0.9,0.7,1.5,1.4,1.5,1.9c0,0.7-0.4,1.3-1,1.6l-2.3,1.3v5.3l0.3,9c0,0.8-0.5,1.5-1.2,2c-0.8,0.6-1.7,0.8-2.8,0.8
			c-2.3,0-3.3-0.6-3.3-2v-1.7H885v0.8c0,1.1-0.6,1.9-1.6,2.3c-1.1,0.6-2.3,0.9-3.6,0.9c-1.4,0-2.2-0.7-2.2-2.4l0.4-9.8v-7.7
			c0-3.3-0.3-5.5-0.8-6.6L885,18.7z M904.7,54c1,0.4,1.4,0.8,1.4,1.5c0,0.8-1.1,1.5-3.4,1.7c-2,3.8-4.6,8-7.7,13.1h2.6l4.1-4.5
			l5,4.1c0.6,0.6,0.9,1.1,0.9,1.6c0,1.1-0.4,1.7-1.1,1.7h-10v17.1c0,1-0.6,1.9-1.5,2.5c-1,0.4-2,0.7-2.9,0.7c-1.4,0-2.2-0.7-2.2-2
			l0.4-9.4v-8.9c-2.8,0.1-5.5,0.3-8.2,0.7l-1.9-4.9c4.1,0.8,8.2,1.3,12.3,1.3h0.1c1.1-4,2.1-7,2.8-9.2c0.9-3.6,1.6-7.1,2.4-10.5
			L904.7,54z M888.9,58.3c1.3,2.1,2,3.9,2,5.3c0,2.7-1,4.1-2.9,4.1c-1,0-1.7-0.9-2.1-3c-0.8-3.7-2.1-7.5-3.8-11.6l1.4-1.3
			C885.6,54.1,887.4,56.2,888.9,58.3z M903.1,34.3V21.6H885v12.6H903.1z M927.3,26.1h6.4v-18c0-1-0.2-3-0.4-6.2l8.5,1.4
			c1.7,0.2,2.6,0.9,2.6,2c0,1-1.2,2-3.7,2.8v18h5.6l4-4.5l5.6,4.7c1,0.6,1.5,1.3,1.5,1.8c0,0.8-0.4,1.4-1,1.6l-2.4,1.4v22.8l0.4,9
			c0,0.8-0.5,1.6-1.2,2c-0.8,0.6-1.7,0.9-2.9,0.9c-2.3,0-3.3-0.6-3.3-2.1v-2.4h-6.3v22.1c0.6,0,1.2-0.1,1.9-0.2
			c2.9-0.2,5.3-0.4,7.6-0.7c-1.1-3.6-2.6-7.2-4.3-11l1.8-1.1c3.5,3.8,6.5,7.4,8.7,11.1c2.1,3.4,3.1,6.4,3.1,8.9
			c0,3.2-1.2,4.9-3.7,4.9c-1.8,0-2.9-1.7-3.5-4.8c-0.4-1.7-0.9-3.2-1.2-4.8c-1.7,0.6-3.6,1.1-5.5,1.8c-3.2,1-7.3,2.1-12.3,3.2
			c-3,0.7-5.8,1.4-8.3,1.8l-1,2.8c-0.6,1.3-1.1,2-1.9,2c-0.7-0.2-1.1-0.8-1.4-1.9l-2.4-10.8c3.2,0,7.2-0.2,12-0.5
			c1.1,0,2.3-0.1,3.3-0.2V61.2h-6.4v2.4c0,1.1-0.5,1.9-1.3,2.3c-0.9,0.6-2,0.9-3.1,0.9c-1.4,0-2.2-0.7-2.2-2.4v-36
			c0-3.3-0.3-5.4-0.8-6.5L927.3,26.1z M933.6,58.3V28.9h-6.4v29.4H933.6z M940.6,58.3h6.3V28.9h-6.3V58.3z"/>
	</g>
</g>
</svg>
