<?xml version="1.0" standalone="no"?>
<!DOCTYPE svg PUBLIC "-//W3C//DTD SVG 20010904//EN"
 "http://www.w3.org/TR/2001/REC-SVG-20010904/DTD/svg10.dtd">
<svg version="1.0" xmlns="http://www.w3.org/2000/svg"
 width="220.000000pt" height="220.000000pt" viewBox="0 0 220.000000 220.000000"
 preserveAspectRatio="xMidYMid meet">
<metadata>
Created by potrace 1.11, written by Peter Selinger 2001-2013
</metadata>
<g transform="translate(0.000000,220.000000) scale(0.100000,-0.100000)"
fill="#000000" stroke="none">
<path d="M1028 2195 c-2 -2 -32 -6 -67 -9 -36 -4 -68 -9 -72 -11 -3 -3 -24 -7
-45 -11 -106 -17 -297 -108 -410 -195 -474 -365 -568 -1048 -211 -1522 245
-324 626 -484 1031 -432 35 4 74 13 176 39 8 2 39 13 67 25 369 146 629 474
687 866 14 97 12 259 -4 340 -6 28 -12 59 -14 70 -10 54 -61 188 -97 253 -190
355 -544 575 -941 586 -54 2 -99 2 -100 1z m26 -161 c-2 -26 -11 -97 -23 -174
-5 -36 -12 -87 -16 -115 -3 -27 -8 -61 -10 -75 -8 -48 -34 -236 -40 -285 -4
-27 -8 -57 -10 -65 -2 -8 -7 -40 -10 -70 -4 -30 -10 -57 -14 -60 -4 -3 -151
-117 -325 -255 -175 -137 -326 -256 -336 -263 -17 -12 -21 -10 -38 25 -31 61
-71 197 -81 275 -19 160 4 344 63 489 64 159 205 334 345 428 119 81 277 143
400 157 31 3 57 8 59 9 11 10 37 -5 36 -21z m231 5 c81 -17 176 -50 240 -82
251 -125 446 -370 505 -632 7 -27 14 -59 16 -70 13 -56 11 -228 -2 -305 -24
-140 -83 -298 -105 -284 -6 3 -111 85 -232 181 -122 96 -269 211 -327 256 -58
44 -108 85 -111 90 -4 5 -12 48 -19 96 -7 47 -13 93 -15 101 -1 8 -5 39 -9 69
-4 30 -9 64 -11 75 -2 12 -7 41 -10 66 -3 25 -7 56 -9 70 -4 22 -17 112 -32
220 -4 32 -7 54 -20 136 l-4 31 47 -3 c27 -2 71 -9 98 -15z m-133 -1149 c29
-11 62 -25 73 -30 11 -5 169 -69 352 -141 l332 -132 -32 -46 c-43 -64 -171
-189 -237 -232 -391 -258 -890 -210 -1216 116 -116 116 -143 169 -93 179 8 2
25 8 39 13 14 6 106 43 205 83 99 39 193 78 209 86 16 8 33 14 37 14 8 0 8 0
159 63 58 25 108 45 112 46 4 0 31 -8 60 -19z"/>
</g>
</svg>
