<?xml version="1.0" encoding="utf-8"?>
<!-- Generator: Adobe Illustrator 21.1.0, SVG Export Plug-In . SVG Version: 6.00 Build 0)  -->
<svg version="1.1" id="分離模式" xmlns="http://www.w3.org/2000/svg" xmlns:xlink="http://www.w3.org/1999/xlink" x="0px"
	 y="0px" viewBox="0 0 25 25" style="enable-background:new 0 0 25 25;" xml:space="preserve">
<style type="text/css">
	.st0{fill:url(#SVGID_1_);}
	.st1{fill:url(#SVGID_2_);}
	.st2{fill:url(#SVGID_3_);}
	.st3{filter:url(#Adobe_OpacityMaskFilter);}
	.st4{fill:url(#SVGID_5_);}
	.st5{mask:url(#SVGID_4_);}
	.st6{fill:url(#SVGID_6_);}
	.st7{fill:url(#SVGID_7_);}
	.st8{fill:url(#SVGID_8_);}
</style>
<g>
	<g>
		<linearGradient id="SVGID_1_" gradientUnits="userSpaceOnUse" x1="12.5" y1="4.2001" x2="12.5" y2="17.9963">
			<stop  offset="0" style="stop-color:#3A3635"/>
			<stop  offset="0.1467" style="stop-color:#403C3B"/>
			<stop  offset="0.4067" style="stop-color:#555353"/>
			<stop  offset="0.4612" style="stop-color:#5A5858"/>
			<stop  offset="0.5217" style="stop-color:#676565"/>
			<stop  offset="0.5844" style="stop-color:#7B7A7B"/>
			<stop  offset="0.7004" style="stop-color:#717070"/>
			<stop  offset="0.8311" style="stop-color:#6A6969"/>
			<stop  offset="0.98" style="stop-color:#4D4A49"/>
		</linearGradient>
		<path class="st0" d="M6.9,12.2c-0.1,0.4-0.1,0.7-0.2,1C6.1,13.1,5.6,13,5,12.9c-0.1,1.4,0.1,2.8,0.8,4.1c0.5-0.3,1-0.6,1.5-0.9
			c0.2,0.3,0.3,0.6,0.5,0.9c-0.6,0.3-1,0.8-1.7,0.7c-0.2,0-0.4,0-0.5,0c-0.4,0.1-0.6-0.1-0.8-0.5C2.5,12.3,5.2,6.5,10.4,5.2
			c4.8-1.2,9.7,2,10.5,6.9c0.3,1.8,0,3.6-0.8,5.3c-0.1,0.2-0.2,0.3-0.5,0.3c-0.2,0-0.3,0-0.5,0c-0.8,0-1.2-0.1-1.9-0.7
			c0.2-0.3,0.3-0.6,0.5-0.9c0.5,0.3,1,0.6,1.5,0.9c0.7-1.3,0.9-2.6,0.8-4.1c-0.6,0.1-1.2,0.2-1.8,0.3c-0.1-0.3-0.1-0.6-0.2-1
			c0.6-0.1,1.2-0.2,1.8-0.3c-0.3-1.4-1-2.6-2.1-3.7c-0.4,0.5-0.8,1-1.2,1.5c-0.3-0.2-0.5-0.4-0.8-0.7c0.4-0.5,0.8-1,1.2-1.5
			c-1.2-0.9-2.5-1.4-4-1.5c0,0.7,0,1.3,0,1.9c-0.4,0-0.7,0-1,0c0-0.6,0-1.3,0-1.9c-1.5,0.1-2.8,0.6-4,1.5C8.4,8,8.8,8.4,9.2,9
			C8.9,9.2,8.7,9.4,8.4,9.6C8,9.1,7.6,8.7,7.2,8.2c-1,1-1.7,2.2-2.1,3.7C5.7,12,6.3,12.1,6.9,12.2z"/>
		<linearGradient id="SVGID_2_" gradientUnits="userSpaceOnUse" x1="12.5058" y1="4.2001" x2="12.5058" y2="17.9963">
			<stop  offset="0" style="stop-color:#3A3635"/>
			<stop  offset="0.1467" style="stop-color:#403C3B"/>
			<stop  offset="0.4067" style="stop-color:#555353"/>
			<stop  offset="0.4612" style="stop-color:#5A5858"/>
			<stop  offset="0.5217" style="stop-color:#676565"/>
			<stop  offset="0.5844" style="stop-color:#7B7A7B"/>
			<stop  offset="0.7004" style="stop-color:#717070"/>
			<stop  offset="0.8311" style="stop-color:#6A6969"/>
			<stop  offset="0.98" style="stop-color:#4D4A49"/>
		</linearGradient>
		<path class="st1" d="M9,17.7c0-0.6,0-1.1,0-1.6c2.3,0,4.6,0,6.9,0c0,0.5,0,1.1,0,1.6C13.7,17.7,11.4,17.7,9,17.7z"/>
		<linearGradient id="SVGID_3_" gradientUnits="userSpaceOnUse" x1="10.1199" y1="10.4672" x2="13.1513" y2="13.6324">
			<stop  offset="2.000000e-02" style="stop-color:#4D4A49"/>
			<stop  offset="0.5911" style="stop-color:#9FA0A0"/>
			<stop  offset="0.7867" style="stop-color:#898989"/>
			<stop  offset="0.8933" style="stop-color:#727171"/>
		</linearGradient>
		<path class="st2" d="M9.8,10.4c0.9,0.7,1.8,1.3,2.7,2c0.1,0.1,0.3,0.2,0.4,0.2c0.3,0.1,0.5,0.4,0.5,0.7c0,0.3-0.3,0.6-0.6,0.6
			c-0.3,0.1-0.6-0.1-0.8-0.4c-0.1-0.2-0.2-0.4-0.3-0.5C11.2,12.2,10.5,11.3,9.8,10.4C9.8,10.4,9.8,10.4,9.8,10.4z"/>
	</g>
	<defs>
		<filter id="Adobe_OpacityMaskFilter" filterUnits="userSpaceOnUse" x="3.9" y="18.6" width="17.1" height="12.7">
			<feColorMatrix  type="matrix" values="1 0 0 0 0  0 1 0 0 0  0 0 1 0 0  0 0 0 1 0"/>
		</filter>
	</defs>
	<mask maskUnits="userSpaceOnUse" x="3.9" y="18.6" width="17.1" height="12.7" id="SVGID_4_">
		<g class="st3">
			<linearGradient id="SVGID_5_" gradientUnits="userSpaceOnUse" x1="12.2671" y1="11.9501" x2="12.2671" y2="23.5291">
				<stop  offset="0" style="stop-color:#FFFFFF"/>
				<stop  offset="1" style="stop-color:#000000"/>
			</linearGradient>
			<rect x="0.5" y="17" class="st4" width="23.6" height="13.4"/>
		</g>
	</mask>
	<g class="st5">
		
			<linearGradient id="SVGID_6_" gradientUnits="userSpaceOnUse" x1="12.5" y1="-7.1437" x2="12.5" y2="6.6526" gradientTransform="matrix(1 0 0 -1 0 25)">
			<stop  offset="0" style="stop-color:#3A3635"/>
			<stop  offset="0.1467" style="stop-color:#403C3B"/>
			<stop  offset="0.4067" style="stop-color:#555353"/>
			<stop  offset="0.4612" style="stop-color:#5A5858"/>
			<stop  offset="0.5217" style="stop-color:#676565"/>
			<stop  offset="0.5844" style="stop-color:#7B7A7B"/>
			<stop  offset="0.7004" style="stop-color:#717070"/>
			<stop  offset="0.8311" style="stop-color:#6A6969"/>
			<stop  offset="0.98" style="stop-color:#4D4A49"/>
		</linearGradient>
		<path class="st6" d="M6.9,24.1c-0.1-0.4-0.1-0.7-0.2-1c-0.6,0.1-1.2,0.2-1.8,0.3c-0.1-1.4,0.1-2.8,0.8-4.1c0.5,0.3,1,0.6,1.5,0.9
			c0.2-0.3,0.3-0.6,0.5-0.9c-0.6-0.3-1-0.8-1.7-0.7c-0.2,0-0.4,0-0.5,0c-0.4-0.1-0.6,0.1-0.8,0.5C2.5,24,5.2,29.8,10.4,31.1
			c4.8,1.2,9.7-2,10.5-6.9c0.3-1.8,0-3.6-0.8-5.3c-0.1-0.2-0.2-0.3-0.5-0.3c-0.2,0-0.3,0-0.5,0c-0.8,0-1.2,0.1-1.9,0.7
			c0.2,0.3,0.3,0.6,0.5,0.9c0.5-0.3,1-0.6,1.5-0.9c0.7,1.3,0.9,2.6,0.8,4.1c-0.6-0.1-1.2-0.2-1.8-0.3c-0.1,0.3-0.1,0.6-0.2,1
			c0.6,0.1,1.2,0.2,1.8,0.3c-0.3,1.4-1,2.6-2.1,3.7c-0.4-0.5-0.8-1-1.2-1.5c-0.3,0.2-0.5,0.4-0.8,0.7c0.4,0.5,0.8,1,1.2,1.5
			c-1.2,0.9-2.5,1.4-4,1.5c0-0.7,0-1.3,0-1.9c-0.4,0-0.7,0-1,0c0,0.6,0,1.3,0,1.9c-1.5-0.1-2.8-0.6-4-1.5c0.4-0.5,0.8-1,1.2-1.5
			c-0.3-0.2-0.5-0.4-0.8-0.7c-0.4,0.5-0.8,1-1.2,1.5c-1-1-1.7-2.2-2.1-3.7C5.7,24.4,6.3,24.3,6.9,24.1z"/>
		
			<linearGradient id="SVGID_7_" gradientUnits="userSpaceOnUse" x1="12.5058" y1="-7.1437" x2="12.5058" y2="6.6526" gradientTransform="matrix(1 0 0 -1 0 25)">
			<stop  offset="0" style="stop-color:#3A3635"/>
			<stop  offset="0.1467" style="stop-color:#403C3B"/>
			<stop  offset="0.4067" style="stop-color:#555353"/>
			<stop  offset="0.4612" style="stop-color:#5A5858"/>
			<stop  offset="0.5217" style="stop-color:#676565"/>
			<stop  offset="0.5844" style="stop-color:#7B7A7B"/>
			<stop  offset="0.7004" style="stop-color:#717070"/>
			<stop  offset="0.8311" style="stop-color:#6A6969"/>
			<stop  offset="0.98" style="stop-color:#4D4A49"/>
		</linearGradient>
		<path class="st7" d="M9,18.7c0,0.6,0,1.1,0,1.6c2.3,0,4.6,0,6.9,0c0-0.5,0-1.1,0-1.6C13.7,18.7,11.4,18.7,9,18.7z"/>
		
			<linearGradient id="SVGID_8_" gradientUnits="userSpaceOnUse" x1="10.1199" y1="-0.8765" x2="13.1513" y2="2.2887" gradientTransform="matrix(1 0 0 -1 0 25)">
			<stop  offset="2.000000e-02" style="stop-color:#4D4A49"/>
			<stop  offset="0.5911" style="stop-color:#9FA0A0"/>
			<stop  offset="0.7867" style="stop-color:#898989"/>
			<stop  offset="0.8933" style="stop-color:#727171"/>
		</linearGradient>
		<path class="st8" d="M9.8,25.9c0.9-0.7,1.8-1.3,2.7-2c0.1-0.1,0.3-0.2,0.4-0.2c0.3-0.1,0.5-0.4,0.5-0.7c0-0.3-0.3-0.6-0.6-0.6
			c-0.3-0.1-0.6,0.1-0.8,0.4c-0.1,0.2-0.2,0.4-0.3,0.5C11.2,24.2,10.5,25,9.8,25.9C9.8,25.9,9.8,25.9,9.8,25.9z"/>
	</g>
</g>
</svg>
